<mxfile host="app.diagrams.net" modified="2023-12-16T18:19:12.868Z" agent="Mozilla/5.0 (Windows NT 10.0; Win64; x64) AppleWebKit/537.36 (KHTML, like Gecko) Chrome/120.0.0.0 Safari/537.36" etag="HaiQJSrEoaf3aDQdg868" version="22.1.11" type="device">
  <diagram id="R2lEEEUBdFMjLlhIrx00" name="Page-1">
    <mxGraphModel dx="545" dy="1438" grid="1" gridSize="10" guides="1" tooltips="1" connect="1" arrows="1" fold="1" page="1" pageScale="1" pageWidth="850" pageHeight="1100" math="0" shadow="0" extFonts="Permanent Marker^https://fonts.googleapis.com/css?family=Permanent+Marker">
      <root>
        <mxCell id="0" />
        <mxCell id="1" parent="0" />
        <mxCell id="C-vyLk0tnHw3VtMMgP7b-23" value="Member_tb" style="shape=table;startSize=30;container=1;collapsible=1;childLayout=tableLayout;fixedRows=1;rowLines=0;fontStyle=1;align=center;resizeLast=1;fillColor=#d5e8d4;strokeColor=#82b366;" parent="1" vertex="1">
          <mxGeometry x="120" y="120" width="250" height="480" as="geometry" />
        </mxCell>
        <mxCell id="C-vyLk0tnHw3VtMMgP7b-24" value="" style="shape=partialRectangle;collapsible=0;dropTarget=0;pointerEvents=0;fillColor=none;points=[[0,0.5],[1,0.5]];portConstraint=eastwest;top=0;left=0;right=0;bottom=1;fontStyle=0" parent="C-vyLk0tnHw3VtMMgP7b-23" vertex="1">
          <mxGeometry y="30" width="250" height="30" as="geometry" />
        </mxCell>
        <mxCell id="C-vyLk0tnHw3VtMMgP7b-25" value="PK" style="shape=partialRectangle;overflow=hidden;connectable=0;fillColor=none;top=0;left=0;bottom=0;right=0;fontStyle=1;" parent="C-vyLk0tnHw3VtMMgP7b-24" vertex="1">
          <mxGeometry width="30" height="30" as="geometry">
            <mxRectangle width="30" height="30" as="alternateBounds" />
          </mxGeometry>
        </mxCell>
        <mxCell id="C-vyLk0tnHw3VtMMgP7b-26" value="mid mediumint(9) NOT NULL " style="shape=partialRectangle;overflow=hidden;connectable=0;fillColor=none;top=0;left=0;bottom=0;right=0;align=left;spacingLeft=6;fontStyle=1;" parent="C-vyLk0tnHw3VtMMgP7b-24" vertex="1">
          <mxGeometry x="30" width="220" height="30" as="geometry">
            <mxRectangle width="220" height="30" as="alternateBounds" />
          </mxGeometry>
        </mxCell>
        <mxCell id="C-vyLk0tnHw3VtMMgP7b-27" value="" style="shape=partialRectangle;collapsible=0;dropTarget=0;pointerEvents=0;fillColor=none;points=[[0,0.5],[1,0.5]];portConstraint=eastwest;top=0;left=0;right=0;bottom=0;fontStyle=0" parent="C-vyLk0tnHw3VtMMgP7b-23" vertex="1">
          <mxGeometry y="60" width="250" height="30" as="geometry" />
        </mxCell>
        <mxCell id="C-vyLk0tnHw3VtMMgP7b-28" value="" style="shape=partialRectangle;overflow=hidden;connectable=0;fillColor=none;top=0;left=0;bottom=0;right=0;fontStyle=0" parent="C-vyLk0tnHw3VtMMgP7b-27" vertex="1">
          <mxGeometry width="30" height="30" as="geometry">
            <mxRectangle width="30" height="30" as="alternateBounds" />
          </mxGeometry>
        </mxCell>
        <mxCell id="C-vyLk0tnHw3VtMMgP7b-29" value="" style="shape=partialRectangle;overflow=hidden;connectable=0;fillColor=none;top=0;left=0;bottom=0;right=0;align=left;spacingLeft=6;fontStyle=0" parent="C-vyLk0tnHw3VtMMgP7b-27" vertex="1">
          <mxGeometry x="30" width="220" height="30" as="geometry">
            <mxRectangle width="220" height="30" as="alternateBounds" />
          </mxGeometry>
        </mxCell>
        <mxCell id="uSfFsMPVZNawBo8DDsm8-3" value="lname varchar(50) NOT NULL" style="shape=partialRectangle;overflow=hidden;connectable=0;fillColor=none;top=0;left=0;bottom=0;right=0;align=left;spacingLeft=6;fontStyle=0" parent="1" vertex="1">
          <mxGeometry x="150" y="210" width="220" height="30" as="geometry">
            <mxRectangle width="220" height="30" as="alternateBounds" />
          </mxGeometry>
        </mxCell>
        <mxCell id="uSfFsMPVZNawBo8DDsm8-12" value="fname varchar(50) NOT NULL" style="shape=partialRectangle;overflow=hidden;connectable=0;fillColor=none;top=0;left=0;bottom=0;right=0;align=left;spacingLeft=6;fontStyle=0" parent="1" vertex="1">
          <mxGeometry x="150" y="180" width="220" height="30" as="geometry">
            <mxRectangle width="220" height="30" as="alternateBounds" />
          </mxGeometry>
        </mxCell>
        <mxCell id="uSfFsMPVZNawBo8DDsm8-13" value="gender varchar(50) " style="shape=partialRectangle;overflow=hidden;connectable=0;fillColor=none;top=0;left=0;bottom=0;right=0;align=left;spacingLeft=6;fontStyle=0" parent="1" vertex="1">
          <mxGeometry x="149" y="330" width="220" height="30" as="geometry">
            <mxRectangle width="220" height="30" as="alternateBounds" />
          </mxGeometry>
        </mxCell>
        <mxCell id="uSfFsMPVZNawBo8DDsm8-14" value="status varchar(50)" style="shape=partialRectangle;overflow=hidden;connectable=0;fillColor=none;top=0;left=0;bottom=0;right=0;align=left;spacingLeft=6;fontStyle=0" parent="1" vertex="1">
          <mxGeometry x="149" y="390" width="220" height="30" as="geometry">
            <mxRectangle width="220" height="30" as="alternateBounds" />
          </mxGeometry>
        </mxCell>
        <mxCell id="uSfFsMPVZNawBo8DDsm8-15" value="email varchar(100) NOT NULL" style="shape=partialRectangle;overflow=hidden;connectable=0;fillColor=none;top=0;left=0;bottom=0;right=0;align=left;spacingLeft=6;fontStyle=0" parent="1" vertex="1">
          <mxGeometry x="150" y="240" width="220" height="30" as="geometry">
            <mxRectangle width="220" height="30" as="alternateBounds" />
          </mxGeometry>
        </mxCell>
        <mxCell id="uSfFsMPVZNawBo8DDsm8-16" value="phne varchar(50) " style="shape=partialRectangle;overflow=hidden;connectable=0;fillColor=none;top=0;left=0;bottom=0;right=0;align=left;spacingLeft=6;fontStyle=0" parent="1" vertex="1">
          <mxGeometry x="149" y="300" width="220" height="30" as="geometry">
            <mxRectangle width="220" height="30" as="alternateBounds" />
          </mxGeometry>
        </mxCell>
        <mxCell id="uSfFsMPVZNawBo8DDsm8-17" value="level varchar(50)" style="shape=partialRectangle;overflow=hidden;connectable=0;fillColor=none;top=0;left=0;bottom=0;right=0;align=left;spacingLeft=6;fontStyle=0" parent="1" vertex="1">
          <mxGeometry x="149" y="420" width="220" height="30" as="geometry">
            <mxRectangle width="220" height="30" as="alternateBounds" />
          </mxGeometry>
        </mxCell>
        <mxCell id="uSfFsMPVZNawBo8DDsm8-18" value="joined date" style="shape=partialRectangle;overflow=hidden;connectable=0;fillColor=none;top=0;left=0;bottom=0;right=0;align=left;spacingLeft=6;fontStyle=0" parent="1" vertex="1">
          <mxGeometry x="150" y="360" width="220" height="30" as="geometry">
            <mxRectangle width="220" height="30" as="alternateBounds" />
          </mxGeometry>
        </mxCell>
        <mxCell id="uSfFsMPVZNawBo8DDsm8-19" value="goal varchar(50)" style="shape=partialRectangle;overflow=hidden;connectable=0;fillColor=none;top=0;left=0;bottom=0;right=0;align=left;spacingLeft=6;fontStyle=0" parent="1" vertex="1">
          <mxGeometry x="149" y="450" width="220" height="30" as="geometry">
            <mxRectangle width="220" height="30" as="alternateBounds" />
          </mxGeometry>
        </mxCell>
        <mxCell id="uSfFsMPVZNawBo8DDsm8-20" value="days mediumint(11)" style="shape=partialRectangle;overflow=hidden;connectable=0;fillColor=none;top=0;left=0;bottom=0;right=0;align=left;spacingLeft=6;fontStyle=0" parent="1" vertex="1">
          <mxGeometry x="149" y="480" width="220" height="30" as="geometry">
            <mxRectangle width="220" height="30" as="alternateBounds" />
          </mxGeometry>
        </mxCell>
        <mxCell id="uSfFsMPVZNawBo8DDsm8-21" value="note text" style="shape=partialRectangle;overflow=hidden;connectable=0;fillColor=none;top=0;left=0;bottom=0;right=0;align=left;spacingLeft=6;fontStyle=0" parent="1" vertex="1">
          <mxGeometry x="149" y="510" width="220" height="30" as="geometry">
            <mxRectangle width="220" height="30" as="alternateBounds" />
          </mxGeometry>
        </mxCell>
        <mxCell id="uSfFsMPVZNawBo8DDsm8-22" value="ifname varchar(50) " style="shape=partialRectangle;overflow=hidden;connectable=0;fillColor=none;top=0;left=0;bottom=0;right=0;align=left;spacingLeft=6;fontStyle=0" parent="1" vertex="1">
          <mxGeometry x="149" y="540" width="220" height="30" as="geometry">
            <mxRectangle width="220" height="30" as="alternateBounds" />
          </mxGeometry>
        </mxCell>
        <mxCell id="uSfFsMPVZNawBo8DDsm8-23" value="age mediumint(9)" style="shape=partialRectangle;overflow=hidden;connectable=0;fillColor=none;top=0;left=0;bottom=0;right=0;align=left;spacingLeft=6;fontStyle=0" parent="1" vertex="1">
          <mxGeometry x="149" y="570" width="220" height="30" as="geometry">
            <mxRectangle width="220" height="30" as="alternateBounds" />
          </mxGeometry>
        </mxCell>
        <mxCell id="uSfFsMPVZNawBo8DDsm8-27" value="pass varchar(100) NOT NULL" style="shape=partialRectangle;overflow=hidden;connectable=0;fillColor=none;top=0;left=0;bottom=0;right=0;align=left;spacingLeft=6;fontStyle=0" parent="1" vertex="1">
          <mxGeometry x="150" y="270" width="220" height="30" as="geometry">
            <mxRectangle width="220" height="30" as="alternateBounds" />
          </mxGeometry>
        </mxCell>
        <mxCell id="uSfFsMPVZNawBo8DDsm8-28" value="" style="endArrow=none;html=1;rounded=0;fontStyle=0" parent="1" edge="1">
          <mxGeometry width="50" height="50" relative="1" as="geometry">
            <mxPoint x="150" y="600" as="sourcePoint" />
            <mxPoint x="150" y="210" as="targetPoint" />
          </mxGeometry>
        </mxCell>
        <mxCell id="uSfFsMPVZNawBo8DDsm8-29" value="" style="endArrow=none;html=1;rounded=0;exitX=0.003;exitY=1.046;exitDx=0;exitDy=0;exitPerimeter=0;fontStyle=0" parent="1" source="C-vyLk0tnHw3VtMMgP7b-27" edge="1">
          <mxGeometry width="50" height="50" relative="1" as="geometry">
            <mxPoint x="380" y="350" as="sourcePoint" />
            <mxPoint x="370" y="211" as="targetPoint" />
          </mxGeometry>
        </mxCell>
        <mxCell id="uSfFsMPVZNawBo8DDsm8-32" value="" style="endArrow=none;html=1;rounded=0;exitX=0.003;exitY=1.046;exitDx=0;exitDy=0;exitPerimeter=0;fontStyle=0" parent="1" edge="1">
          <mxGeometry width="50" height="50" relative="1" as="geometry">
            <mxPoint x="121" y="240" as="sourcePoint" />
            <mxPoint x="370" y="240" as="targetPoint" />
          </mxGeometry>
        </mxCell>
        <mxCell id="uSfFsMPVZNawBo8DDsm8-33" value="" style="endArrow=none;html=1;rounded=0;exitX=0.003;exitY=1.046;exitDx=0;exitDy=0;exitPerimeter=0;fontStyle=0" parent="1" edge="1">
          <mxGeometry width="50" height="50" relative="1" as="geometry">
            <mxPoint x="121" y="270" as="sourcePoint" />
            <mxPoint x="370" y="270" as="targetPoint" />
          </mxGeometry>
        </mxCell>
        <mxCell id="uSfFsMPVZNawBo8DDsm8-34" value="" style="endArrow=none;html=1;rounded=0;exitX=0.003;exitY=1.046;exitDx=0;exitDy=0;exitPerimeter=0;fontStyle=0" parent="1" edge="1">
          <mxGeometry width="50" height="50" relative="1" as="geometry">
            <mxPoint x="120" y="300" as="sourcePoint" />
            <mxPoint x="369" y="300" as="targetPoint" />
          </mxGeometry>
        </mxCell>
        <mxCell id="uSfFsMPVZNawBo8DDsm8-35" value="" style="endArrow=none;html=1;rounded=0;exitX=0.003;exitY=1.046;exitDx=0;exitDy=0;exitPerimeter=0;fontStyle=0" parent="1" edge="1">
          <mxGeometry width="50" height="50" relative="1" as="geometry">
            <mxPoint x="121" y="330" as="sourcePoint" />
            <mxPoint x="370" y="330" as="targetPoint" />
          </mxGeometry>
        </mxCell>
        <mxCell id="uSfFsMPVZNawBo8DDsm8-36" value="" style="endArrow=none;html=1;rounded=0;exitX=0.003;exitY=1.046;exitDx=0;exitDy=0;exitPerimeter=0;fontStyle=0" parent="1" edge="1">
          <mxGeometry width="50" height="50" relative="1" as="geometry">
            <mxPoint x="120" y="360" as="sourcePoint" />
            <mxPoint x="369" y="360" as="targetPoint" />
          </mxGeometry>
        </mxCell>
        <mxCell id="uSfFsMPVZNawBo8DDsm8-37" value="" style="endArrow=none;html=1;rounded=0;exitX=0.003;exitY=1.046;exitDx=0;exitDy=0;exitPerimeter=0;fontStyle=0" parent="1" edge="1">
          <mxGeometry width="50" height="50" relative="1" as="geometry">
            <mxPoint x="121" y="390" as="sourcePoint" />
            <mxPoint x="370" y="390" as="targetPoint" />
          </mxGeometry>
        </mxCell>
        <mxCell id="uSfFsMPVZNawBo8DDsm8-38" value="" style="endArrow=none;html=1;rounded=0;exitX=0.003;exitY=1.046;exitDx=0;exitDy=0;exitPerimeter=0;fontStyle=0" parent="1" edge="1">
          <mxGeometry width="50" height="50" relative="1" as="geometry">
            <mxPoint x="120" y="420" as="sourcePoint" />
            <mxPoint x="369" y="420" as="targetPoint" />
          </mxGeometry>
        </mxCell>
        <mxCell id="uSfFsMPVZNawBo8DDsm8-39" value="" style="endArrow=none;html=1;rounded=0;exitX=0.003;exitY=1.046;exitDx=0;exitDy=0;exitPerimeter=0;fontStyle=0" parent="1" edge="1">
          <mxGeometry width="50" height="50" relative="1" as="geometry">
            <mxPoint x="121" y="449.26" as="sourcePoint" />
            <mxPoint x="370" y="449.26" as="targetPoint" />
          </mxGeometry>
        </mxCell>
        <mxCell id="uSfFsMPVZNawBo8DDsm8-40" value="" style="endArrow=none;html=1;rounded=0;exitX=0.003;exitY=1.046;exitDx=0;exitDy=0;exitPerimeter=0;fontStyle=0" parent="1" edge="1">
          <mxGeometry width="50" height="50" relative="1" as="geometry">
            <mxPoint x="121" y="480" as="sourcePoint" />
            <mxPoint x="370" y="480" as="targetPoint" />
          </mxGeometry>
        </mxCell>
        <mxCell id="uSfFsMPVZNawBo8DDsm8-41" value="" style="endArrow=none;html=1;rounded=0;exitX=0.003;exitY=1.046;exitDx=0;exitDy=0;exitPerimeter=0;fontStyle=0" parent="1" edge="1">
          <mxGeometry width="50" height="50" relative="1" as="geometry">
            <mxPoint x="121" y="510" as="sourcePoint" />
            <mxPoint x="370" y="510" as="targetPoint" />
          </mxGeometry>
        </mxCell>
        <mxCell id="uSfFsMPVZNawBo8DDsm8-42" value="" style="endArrow=none;html=1;rounded=0;exitX=0.003;exitY=1.046;exitDx=0;exitDy=0;exitPerimeter=0;fontStyle=0" parent="1" edge="1">
          <mxGeometry width="50" height="50" relative="1" as="geometry">
            <mxPoint x="120" y="540" as="sourcePoint" />
            <mxPoint x="369" y="540" as="targetPoint" />
          </mxGeometry>
        </mxCell>
        <mxCell id="uSfFsMPVZNawBo8DDsm8-43" value="" style="endArrow=none;html=1;rounded=0;exitX=0.003;exitY=1.046;exitDx=0;exitDy=0;exitPerimeter=0;fontStyle=0" parent="1" edge="1">
          <mxGeometry width="50" height="50" relative="1" as="geometry">
            <mxPoint x="121" y="570" as="sourcePoint" />
            <mxPoint x="370" y="570" as="targetPoint" />
          </mxGeometry>
        </mxCell>
        <mxCell id="uSfFsMPVZNawBo8DDsm8-128" value="Instructor_tb" style="shape=table;startSize=30;container=1;collapsible=1;childLayout=tableLayout;fixedRows=1;rowLines=0;fontStyle=1;align=center;resizeLast=1;fillColor=#d5e8d4;strokeColor=#82b366;" parent="1" vertex="1">
          <mxGeometry x="561" width="250" height="240" as="geometry" />
        </mxCell>
        <mxCell id="uSfFsMPVZNawBo8DDsm8-129" value="" style="shape=partialRectangle;collapsible=0;dropTarget=0;pointerEvents=0;fillColor=none;points=[[0,0.5],[1,0.5]];portConstraint=eastwest;top=0;left=0;right=0;bottom=1;fontStyle=0" parent="uSfFsMPVZNawBo8DDsm8-128" vertex="1">
          <mxGeometry y="30" width="250" height="30" as="geometry" />
        </mxCell>
        <mxCell id="uSfFsMPVZNawBo8DDsm8-130" value="PK" style="shape=partialRectangle;overflow=hidden;connectable=0;fillColor=none;top=0;left=0;bottom=0;right=0;fontStyle=1;" parent="uSfFsMPVZNawBo8DDsm8-129" vertex="1">
          <mxGeometry width="30" height="30" as="geometry">
            <mxRectangle width="30" height="30" as="alternateBounds" />
          </mxGeometry>
        </mxCell>
        <mxCell id="uSfFsMPVZNawBo8DDsm8-131" value="iid mediumint(9) NOT NULL " style="shape=partialRectangle;overflow=hidden;connectable=0;fillColor=none;top=0;left=0;bottom=0;right=0;align=left;spacingLeft=6;fontStyle=1;" parent="uSfFsMPVZNawBo8DDsm8-129" vertex="1">
          <mxGeometry x="30" width="220" height="30" as="geometry">
            <mxRectangle width="220" height="30" as="alternateBounds" />
          </mxGeometry>
        </mxCell>
        <mxCell id="uSfFsMPVZNawBo8DDsm8-132" value="" style="shape=partialRectangle;collapsible=0;dropTarget=0;pointerEvents=0;fillColor=none;points=[[0,0.5],[1,0.5]];portConstraint=eastwest;top=0;left=0;right=0;bottom=0;fontStyle=0" parent="uSfFsMPVZNawBo8DDsm8-128" vertex="1">
          <mxGeometry y="60" width="250" height="30" as="geometry" />
        </mxCell>
        <mxCell id="uSfFsMPVZNawBo8DDsm8-133" value="" style="shape=partialRectangle;overflow=hidden;connectable=0;fillColor=none;top=0;left=0;bottom=0;right=0;fontStyle=0" parent="uSfFsMPVZNawBo8DDsm8-132" vertex="1">
          <mxGeometry width="30" height="30" as="geometry">
            <mxRectangle width="30" height="30" as="alternateBounds" />
          </mxGeometry>
        </mxCell>
        <mxCell id="uSfFsMPVZNawBo8DDsm8-134" value="" style="shape=partialRectangle;overflow=hidden;connectable=0;fillColor=none;top=0;left=0;bottom=0;right=0;align=left;spacingLeft=6;fontStyle=0" parent="uSfFsMPVZNawBo8DDsm8-132" vertex="1">
          <mxGeometry x="30" width="220" height="30" as="geometry">
            <mxRectangle width="220" height="30" as="alternateBounds" />
          </mxGeometry>
        </mxCell>
        <mxCell id="uSfFsMPVZNawBo8DDsm8-135" value="lname varchar(50) NOT NULL" style="shape=partialRectangle;overflow=hidden;connectable=0;fillColor=none;top=0;left=0;bottom=0;right=0;align=left;spacingLeft=6;fontStyle=0" parent="1" vertex="1">
          <mxGeometry x="590" y="90" width="220" height="30" as="geometry">
            <mxRectangle width="220" height="30" as="alternateBounds" />
          </mxGeometry>
        </mxCell>
        <mxCell id="uSfFsMPVZNawBo8DDsm8-136" value="fname varchar(50) NOT NULL" style="shape=partialRectangle;overflow=hidden;connectable=0;fillColor=none;top=0;left=0;bottom=0;right=0;align=left;spacingLeft=6;fontStyle=0" parent="1" vertex="1">
          <mxGeometry x="590" y="60" width="220" height="30" as="geometry">
            <mxRectangle width="220" height="30" as="alternateBounds" />
          </mxGeometry>
        </mxCell>
        <mxCell id="uSfFsMPVZNawBo8DDsm8-137" value="gender varchar(50) " style="shape=partialRectangle;overflow=hidden;connectable=0;fillColor=none;top=0;left=0;bottom=0;right=0;align=left;spacingLeft=6;fontStyle=0" parent="1" vertex="1">
          <mxGeometry x="590" y="210" width="220" height="30" as="geometry">
            <mxRectangle width="220" height="30" as="alternateBounds" />
          </mxGeometry>
        </mxCell>
        <mxCell id="uSfFsMPVZNawBo8DDsm8-138" value="email varchar(100) NOT NULL" style="shape=partialRectangle;overflow=hidden;connectable=0;fillColor=none;top=0;left=0;bottom=0;right=0;align=left;spacingLeft=6;fontStyle=0" parent="1" vertex="1">
          <mxGeometry x="591" y="120" width="220" height="30" as="geometry">
            <mxRectangle width="220" height="30" as="alternateBounds" />
          </mxGeometry>
        </mxCell>
        <mxCell id="uSfFsMPVZNawBo8DDsm8-139" value="phone varchar(50) " style="shape=partialRectangle;overflow=hidden;connectable=0;fillColor=none;top=0;left=0;bottom=0;right=0;align=left;spacingLeft=6;fontStyle=0" parent="1" vertex="1">
          <mxGeometry x="590" y="180" width="220" height="30" as="geometry">
            <mxRectangle width="220" height="30" as="alternateBounds" />
          </mxGeometry>
        </mxCell>
        <mxCell id="uSfFsMPVZNawBo8DDsm8-140" value="pass varchar(100) NOT NULL" style="shape=partialRectangle;overflow=hidden;connectable=0;fillColor=none;top=0;left=0;bottom=0;right=0;align=left;spacingLeft=6;fontStyle=0" parent="1" vertex="1">
          <mxGeometry x="591" y="150" width="220" height="30" as="geometry">
            <mxRectangle width="220" height="30" as="alternateBounds" />
          </mxGeometry>
        </mxCell>
        <mxCell id="uSfFsMPVZNawBo8DDsm8-141" value="" style="endArrow=none;html=1;rounded=0;fontStyle=0" parent="1" edge="1">
          <mxGeometry width="50" height="50" relative="1" as="geometry">
            <mxPoint x="590" y="240" as="sourcePoint" />
            <mxPoint x="590" y="90" as="targetPoint" />
          </mxGeometry>
        </mxCell>
        <mxCell id="uSfFsMPVZNawBo8DDsm8-142" value="" style="endArrow=none;html=1;rounded=0;fontStyle=0" parent="1" edge="1">
          <mxGeometry width="50" height="50" relative="1" as="geometry">
            <mxPoint x="560" y="90" as="sourcePoint" />
            <mxPoint x="810" y="90" as="targetPoint" />
          </mxGeometry>
        </mxCell>
        <mxCell id="uSfFsMPVZNawBo8DDsm8-143" value="" style="endArrow=none;html=1;rounded=0;fontStyle=0" parent="1" edge="1">
          <mxGeometry width="50" height="50" relative="1" as="geometry">
            <mxPoint x="560" y="124" as="sourcePoint" />
            <mxPoint x="810" y="124" as="targetPoint" />
          </mxGeometry>
        </mxCell>
        <mxCell id="uSfFsMPVZNawBo8DDsm8-144" value="" style="endArrow=none;html=1;rounded=0;fontStyle=0" parent="1" edge="1">
          <mxGeometry width="50" height="50" relative="1" as="geometry">
            <mxPoint x="560" y="150" as="sourcePoint" />
            <mxPoint x="810" y="150" as="targetPoint" />
          </mxGeometry>
        </mxCell>
        <mxCell id="uSfFsMPVZNawBo8DDsm8-145" value="" style="endArrow=none;html=1;rounded=0;fontStyle=0" parent="1" edge="1">
          <mxGeometry width="50" height="50" relative="1" as="geometry">
            <mxPoint x="560" y="179.31" as="sourcePoint" />
            <mxPoint x="810" y="179.31" as="targetPoint" />
          </mxGeometry>
        </mxCell>
        <mxCell id="uSfFsMPVZNawBo8DDsm8-146" value="" style="endArrow=none;html=1;rounded=0;fontStyle=0" parent="1" edge="1">
          <mxGeometry width="50" height="50" relative="1" as="geometry">
            <mxPoint x="560" y="210" as="sourcePoint" />
            <mxPoint x="810" y="210" as="targetPoint" />
          </mxGeometry>
        </mxCell>
        <mxCell id="uSfFsMPVZNawBo8DDsm8-154" value="Workout_member_tb" style="shape=table;startSize=30;container=1;collapsible=1;childLayout=tableLayout;fixedRows=1;rowLines=0;fontStyle=1;align=center;resizeLast=1;fillColor=#fff2cc;strokeColor=#d6b656;" parent="1" vertex="1">
          <mxGeometry x="560" y="640" width="250" height="240" as="geometry" />
        </mxCell>
        <mxCell id="uSfFsMPVZNawBo8DDsm8-155" value="" style="shape=partialRectangle;collapsible=0;dropTarget=0;pointerEvents=0;fillColor=none;points=[[0,0.5],[1,0.5]];portConstraint=eastwest;top=0;left=0;right=0;bottom=1;fontStyle=0" parent="uSfFsMPVZNawBo8DDsm8-154" vertex="1">
          <mxGeometry y="30" width="250" height="30" as="geometry" />
        </mxCell>
        <mxCell id="uSfFsMPVZNawBo8DDsm8-156" value="PK" style="shape=partialRectangle;overflow=hidden;connectable=0;fillColor=none;top=0;left=0;bottom=0;right=0;fontStyle=1;" parent="uSfFsMPVZNawBo8DDsm8-155" vertex="1">
          <mxGeometry width="30" height="30" as="geometry">
            <mxRectangle width="30" height="30" as="alternateBounds" />
          </mxGeometry>
        </mxCell>
        <mxCell id="uSfFsMPVZNawBo8DDsm8-157" value="wmid mediumint(9) NOT NULL " style="shape=partialRectangle;overflow=hidden;connectable=0;fillColor=none;top=0;left=0;bottom=0;right=0;align=left;spacingLeft=6;fontStyle=1;" parent="uSfFsMPVZNawBo8DDsm8-155" vertex="1">
          <mxGeometry x="30" width="220" height="30" as="geometry">
            <mxRectangle width="220" height="30" as="alternateBounds" />
          </mxGeometry>
        </mxCell>
        <mxCell id="uSfFsMPVZNawBo8DDsm8-158" value="" style="shape=partialRectangle;collapsible=0;dropTarget=0;pointerEvents=0;fillColor=none;points=[[0,0.5],[1,0.5]];portConstraint=eastwest;top=0;left=0;right=0;bottom=0;fontStyle=0" parent="uSfFsMPVZNawBo8DDsm8-154" vertex="1">
          <mxGeometry y="60" width="250" height="30" as="geometry" />
        </mxCell>
        <mxCell id="uSfFsMPVZNawBo8DDsm8-159" value="" style="shape=partialRectangle;overflow=hidden;connectable=0;fillColor=none;top=0;left=0;bottom=0;right=0;fontStyle=0" parent="uSfFsMPVZNawBo8DDsm8-158" vertex="1">
          <mxGeometry width="30" height="30" as="geometry">
            <mxRectangle width="30" height="30" as="alternateBounds" />
          </mxGeometry>
        </mxCell>
        <mxCell id="uSfFsMPVZNawBo8DDsm8-160" value="" style="shape=partialRectangle;overflow=hidden;connectable=0;fillColor=none;top=0;left=0;bottom=0;right=0;align=left;spacingLeft=6;fontStyle=0" parent="uSfFsMPVZNawBo8DDsm8-158" vertex="1">
          <mxGeometry x="30" width="220" height="30" as="geometry">
            <mxRectangle width="220" height="30" as="alternateBounds" />
          </mxGeometry>
        </mxCell>
        <mxCell id="uSfFsMPVZNawBo8DDsm8-167" value="" style="endArrow=none;html=1;rounded=0;fontStyle=0" parent="1" edge="1">
          <mxGeometry width="50" height="50" relative="1" as="geometry">
            <mxPoint x="590" y="882" as="sourcePoint" />
            <mxPoint x="590" y="732" as="targetPoint" />
            <Array as="points">
              <mxPoint x="590" y="802" />
            </Array>
          </mxGeometry>
        </mxCell>
        <mxCell id="uSfFsMPVZNawBo8DDsm8-171" value="" style="endArrow=none;html=1;rounded=0;exitX=0.013;exitY=1.053;exitDx=0;exitDy=0;exitPerimeter=0;fontStyle=0" parent="1" edge="1">
          <mxGeometry width="50" height="50" relative="1" as="geometry">
            <mxPoint x="560" y="810" as="sourcePoint" />
            <mxPoint x="806" y="810" as="targetPoint" />
          </mxGeometry>
        </mxCell>
        <mxCell id="uSfFsMPVZNawBo8DDsm8-172" value="" style="endArrow=none;html=1;rounded=0;exitX=0.013;exitY=1.053;exitDx=0;exitDy=0;exitPerimeter=0;fontStyle=0" parent="1" edge="1">
          <mxGeometry width="50" height="50" relative="1" as="geometry">
            <mxPoint x="562" y="849.2" as="sourcePoint" />
            <mxPoint x="808" y="849.2" as="targetPoint" />
          </mxGeometry>
        </mxCell>
        <mxCell id="RFCjPIUDiiTBRHqZEkt3-8" value="Instructor_member_tb" style="shape=table;startSize=30;container=1;collapsible=1;childLayout=tableLayout;fixedRows=1;rowLines=0;fontStyle=1;align=center;resizeLast=1;fillColor=#fff2cc;strokeColor=#d6b656;" parent="1" vertex="1">
          <mxGeometry x="560" y="320" width="250" height="240" as="geometry" />
        </mxCell>
        <mxCell id="RFCjPIUDiiTBRHqZEkt3-9" value="" style="shape=partialRectangle;collapsible=0;dropTarget=0;pointerEvents=0;fillColor=none;points=[[0,0.5],[1,0.5]];portConstraint=eastwest;top=0;left=0;right=0;bottom=1;fontStyle=0" parent="RFCjPIUDiiTBRHqZEkt3-8" vertex="1">
          <mxGeometry y="30" width="250" height="30" as="geometry" />
        </mxCell>
        <mxCell id="RFCjPIUDiiTBRHqZEkt3-10" value="PK" style="shape=partialRectangle;overflow=hidden;connectable=0;fillColor=none;top=0;left=0;bottom=0;right=0;fontStyle=1;" parent="RFCjPIUDiiTBRHqZEkt3-9" vertex="1">
          <mxGeometry width="30" height="30" as="geometry">
            <mxRectangle width="30" height="30" as="alternateBounds" />
          </mxGeometry>
        </mxCell>
        <mxCell id="RFCjPIUDiiTBRHqZEkt3-11" value="imid mediumint(9) NOT NULL " style="shape=partialRectangle;overflow=hidden;connectable=0;fillColor=none;top=0;left=0;bottom=0;right=0;align=left;spacingLeft=6;fontStyle=1;" parent="RFCjPIUDiiTBRHqZEkt3-9" vertex="1">
          <mxGeometry x="30" width="220" height="30" as="geometry">
            <mxRectangle width="220" height="30" as="alternateBounds" />
          </mxGeometry>
        </mxCell>
        <mxCell id="RFCjPIUDiiTBRHqZEkt3-12" value="" style="shape=partialRectangle;collapsible=0;dropTarget=0;pointerEvents=0;fillColor=none;points=[[0,0.5],[1,0.5]];portConstraint=eastwest;top=0;left=0;right=0;bottom=0;fontStyle=0" parent="RFCjPIUDiiTBRHqZEkt3-8" vertex="1">
          <mxGeometry y="60" width="250" height="30" as="geometry" />
        </mxCell>
        <mxCell id="RFCjPIUDiiTBRHqZEkt3-13" value="FK" style="shape=partialRectangle;overflow=hidden;connectable=0;fillColor=none;top=0;left=0;bottom=0;right=0;fontStyle=0" parent="RFCjPIUDiiTBRHqZEkt3-12" vertex="1">
          <mxGeometry width="30" height="30" as="geometry">
            <mxRectangle width="30" height="30" as="alternateBounds" />
          </mxGeometry>
        </mxCell>
        <mxCell id="RFCjPIUDiiTBRHqZEkt3-14" value="" style="shape=partialRectangle;overflow=hidden;connectable=0;fillColor=none;top=0;left=0;bottom=0;right=0;align=left;spacingLeft=6;fontStyle=0" parent="RFCjPIUDiiTBRHqZEkt3-12" vertex="1">
          <mxGeometry x="30" width="220" height="30" as="geometry">
            <mxRectangle width="220" height="30" as="alternateBounds" />
          </mxGeometry>
        </mxCell>
        <mxCell id="RFCjPIUDiiTBRHqZEkt3-22" value="" style="endArrow=none;html=1;rounded=0;fontStyle=0" parent="1" edge="1">
          <mxGeometry width="50" height="50" relative="1" as="geometry">
            <mxPoint x="560" y="419.26" as="sourcePoint" />
            <mxPoint x="810" y="419.26" as="targetPoint" />
          </mxGeometry>
        </mxCell>
        <mxCell id="RFCjPIUDiiTBRHqZEkt3-44" style="edgeStyle=orthogonalEdgeStyle;rounded=0;orthogonalLoop=1;jettySize=auto;html=1;exitX=1;exitY=0.5;exitDx=0;exitDy=0;startArrow=ERmandOne;startFill=0;endArrow=ERzeroToMany;endFill=0;fontStyle=0" parent="1" source="C-vyLk0tnHw3VtMMgP7b-24" edge="1">
          <mxGeometry relative="1" as="geometry">
            <mxPoint x="560" y="425" as="targetPoint" />
            <Array as="points">
              <mxPoint x="410" y="165" />
              <mxPoint x="410" y="425" />
            </Array>
          </mxGeometry>
        </mxCell>
        <mxCell id="RFCjPIUDiiTBRHqZEkt3-45" style="edgeStyle=orthogonalEdgeStyle;rounded=0;orthogonalLoop=1;jettySize=auto;html=1;exitX=0;exitY=0.5;exitDx=0;exitDy=0;endArrow=ERzeroToMany;endFill=0;startArrow=ERmandOne;startFill=0;fontStyle=0" parent="1" source="uSfFsMPVZNawBo8DDsm8-129" edge="1">
          <mxGeometry relative="1" as="geometry">
            <mxPoint x="560" y="390" as="targetPoint" />
            <Array as="points">
              <mxPoint x="540" y="45" />
              <mxPoint x="540" y="390" />
              <mxPoint x="560" y="390" />
            </Array>
          </mxGeometry>
        </mxCell>
        <mxCell id="RFCjPIUDiiTBRHqZEkt3-71" style="edgeStyle=orthogonalEdgeStyle;rounded=0;orthogonalLoop=1;jettySize=auto;html=1;exitX=1;exitY=0.5;exitDx=0;exitDy=0;entryX=0;entryY=0.5;entryDx=0;entryDy=0;startArrow=ERmandOne;startFill=0;endArrow=ERzeroToMany;endFill=0;fontStyle=0" parent="1" target="0jx59TE_2usO_WzDCnup-14" edge="1">
          <mxGeometry relative="1" as="geometry">
            <mxPoint x="369" y="685" as="sourcePoint" />
            <mxPoint x="570" y="780" as="targetPoint" />
            <Array as="points">
              <mxPoint x="520" y="685" />
              <mxPoint x="520" y="715" />
            </Array>
          </mxGeometry>
        </mxCell>
        <mxCell id="RFCjPIUDiiTBRHqZEkt3-73" value="" style="shape=partialRectangle;collapsible=0;dropTarget=0;pointerEvents=0;fillColor=none;points=[[0,0.5],[1,0.5]];portConstraint=eastwest;top=0;left=0;right=0;bottom=1;fontStyle=0" parent="1" vertex="1">
          <mxGeometry x="560" y="750" width="250" height="30" as="geometry" />
        </mxCell>
        <mxCell id="RFCjPIUDiiTBRHqZEkt3-74" value="FK" style="shape=partialRectangle;overflow=hidden;connectable=0;fillColor=none;top=0;left=0;bottom=0;right=0;fontStyle=1;" parent="RFCjPIUDiiTBRHqZEkt3-73" vertex="1">
          <mxGeometry width="30" height="30" as="geometry">
            <mxRectangle width="30" height="30" as="alternateBounds" />
          </mxGeometry>
        </mxCell>
        <mxCell id="0jx59TE_2usO_WzDCnup-1" value="iid mediumint(9) NOT NULL &#xa;FKname: fk_iid_i" style="shape=partialRectangle;overflow=hidden;connectable=0;fillColor=none;top=0;left=0;bottom=0;right=0;align=left;spacingLeft=6;fontStyle=1;" vertex="1" parent="1">
          <mxGeometry x="590" y="380" width="220" height="40" as="geometry">
            <mxRectangle width="220" height="30" as="alternateBounds" />
          </mxGeometry>
        </mxCell>
        <mxCell id="0jx59TE_2usO_WzDCnup-3" value="mid mediumint(9) NOT NULL &#xa;FKname: fk_mid_i" style="shape=partialRectangle;overflow=hidden;connectable=0;fillColor=none;top=0;left=0;bottom=0;right=0;align=left;spacingLeft=6;fontStyle=1;" vertex="1" parent="1">
          <mxGeometry x="590" y="420" width="220" height="40" as="geometry">
            <mxRectangle width="220" height="30" as="alternateBounds" />
          </mxGeometry>
        </mxCell>
        <mxCell id="0jx59TE_2usO_WzDCnup-5" value="" style="endArrow=none;html=1;rounded=0;fontStyle=0" edge="1" parent="1">
          <mxGeometry width="50" height="50" relative="1" as="geometry">
            <mxPoint x="560" y="460" as="sourcePoint" />
            <mxPoint x="810" y="460" as="targetPoint" />
          </mxGeometry>
        </mxCell>
        <mxCell id="0jx59TE_2usO_WzDCnup-6" value="" style="endArrow=none;html=1;rounded=0;entryX=0.125;entryY=0.079;entryDx=0;entryDy=0;entryPerimeter=0;fontStyle=0" edge="1" parent="1" target="RFCjPIUDiiTBRHqZEkt3-9">
          <mxGeometry width="50" height="50" relative="1" as="geometry">
            <mxPoint x="591" y="560" as="sourcePoint" />
            <mxPoint x="530" y="350" as="targetPoint" />
          </mxGeometry>
        </mxCell>
        <mxCell id="0jx59TE_2usO_WzDCnup-8" value="FK" style="whiteSpace=wrap;html=1;strokeWidth=0;fontStyle=0" vertex="1" parent="1">
          <mxGeometry x="561" y="425" width="30" height="30" as="geometry" />
        </mxCell>
        <mxCell id="0jx59TE_2usO_WzDCnup-11" value="requested_date date Not NULL" style="shape=partialRectangle;overflow=hidden;connectable=0;fillColor=none;top=0;left=0;bottom=0;right=0;align=left;spacingLeft=6;fontStyle=0" vertex="1" parent="1">
          <mxGeometry x="591" y="460" width="220" height="30" as="geometry">
            <mxRectangle width="220" height="30" as="alternateBounds" />
          </mxGeometry>
        </mxCell>
        <mxCell id="0jx59TE_2usO_WzDCnup-12" value="" style="endArrow=none;html=1;rounded=0;fontStyle=0" edge="1" parent="1">
          <mxGeometry width="50" height="50" relative="1" as="geometry">
            <mxPoint x="561" y="490" as="sourcePoint" />
            <mxPoint x="811" y="490" as="targetPoint" />
          </mxGeometry>
        </mxCell>
        <mxCell id="0jx59TE_2usO_WzDCnup-13" value="assigned_date date NOT NULL" style="shape=partialRectangle;overflow=hidden;connectable=0;fillColor=none;top=0;left=0;bottom=0;right=0;align=left;spacingLeft=6;fontStyle=0" vertex="1" parent="1">
          <mxGeometry x="590" y="780" width="220" height="30" as="geometry">
            <mxRectangle width="220" height="30" as="alternateBounds" />
          </mxGeometry>
        </mxCell>
        <mxCell id="0jx59TE_2usO_WzDCnup-14" value="" style="shape=partialRectangle;collapsible=0;dropTarget=0;pointerEvents=0;fillColor=none;points=[[0,0.5],[1,0.5]];portConstraint=eastwest;top=0;left=0;right=0;bottom=1;fontStyle=0" vertex="1" parent="1">
          <mxGeometry x="560" y="700" width="250" height="40" as="geometry" />
        </mxCell>
        <mxCell id="0jx59TE_2usO_WzDCnup-15" value="FK" style="shape=partialRectangle;overflow=hidden;connectable=0;fillColor=none;top=0;left=0;bottom=0;right=0;fontStyle=1;" vertex="1" parent="0jx59TE_2usO_WzDCnup-14">
          <mxGeometry width="30" height="40" as="geometry">
            <mxRectangle width="30" height="30" as="alternateBounds" />
          </mxGeometry>
        </mxCell>
        <mxCell id="0jx59TE_2usO_WzDCnup-16" value="wid mediumint(9) NOT NULL &#xa;FKname: fk_wid_w" style="shape=partialRectangle;overflow=hidden;connectable=0;fillColor=none;top=0;left=0;bottom=0;right=0;align=left;spacingLeft=6;fontStyle=1;" vertex="1" parent="0jx59TE_2usO_WzDCnup-14">
          <mxGeometry x="30" width="220" height="40" as="geometry">
            <mxRectangle width="220" height="30" as="alternateBounds" />
          </mxGeometry>
        </mxCell>
        <mxCell id="0jx59TE_2usO_WzDCnup-31" value="Workout" style="shape=table;startSize=30;container=1;collapsible=1;childLayout=tableLayout;fixedRows=1;rowLines=0;fontStyle=1;align=center;resizeLast=1;fillColor=#d5e8d4;strokeColor=#82b366;" vertex="1" parent="1">
          <mxGeometry x="120" y="640" width="250" height="270" as="geometry" />
        </mxCell>
        <mxCell id="0jx59TE_2usO_WzDCnup-32" value="" style="shape=partialRectangle;collapsible=0;dropTarget=0;pointerEvents=0;fillColor=none;points=[[0,0.5],[1,0.5]];portConstraint=eastwest;top=0;left=0;right=0;bottom=1;fontStyle=0" vertex="1" parent="0jx59TE_2usO_WzDCnup-31">
          <mxGeometry y="30" width="250" height="30" as="geometry" />
        </mxCell>
        <mxCell id="0jx59TE_2usO_WzDCnup-33" value="PK" style="shape=partialRectangle;overflow=hidden;connectable=0;fillColor=none;top=0;left=0;bottom=0;right=0;fontStyle=1;" vertex="1" parent="0jx59TE_2usO_WzDCnup-32">
          <mxGeometry width="30" height="30" as="geometry">
            <mxRectangle width="30" height="30" as="alternateBounds" />
          </mxGeometry>
        </mxCell>
        <mxCell id="0jx59TE_2usO_WzDCnup-34" value="wid int NOT NULL " style="shape=partialRectangle;overflow=hidden;connectable=0;fillColor=none;top=0;left=0;bottom=0;right=0;align=left;spacingLeft=6;fontStyle=1;" vertex="1" parent="0jx59TE_2usO_WzDCnup-32">
          <mxGeometry x="30" width="220" height="30" as="geometry">
            <mxRectangle width="220" height="30" as="alternateBounds" />
          </mxGeometry>
        </mxCell>
        <mxCell id="0jx59TE_2usO_WzDCnup-35" value="" style="shape=partialRectangle;collapsible=0;dropTarget=0;pointerEvents=0;fillColor=none;points=[[0,0.5],[1,0.5]];portConstraint=eastwest;top=0;left=0;right=0;bottom=0;fontStyle=0" vertex="1" parent="0jx59TE_2usO_WzDCnup-31">
          <mxGeometry y="60" width="250" height="30" as="geometry" />
        </mxCell>
        <mxCell id="0jx59TE_2usO_WzDCnup-36" value="" style="shape=partialRectangle;overflow=hidden;connectable=0;fillColor=none;top=0;left=0;bottom=0;right=0;fontStyle=0" vertex="1" parent="0jx59TE_2usO_WzDCnup-35">
          <mxGeometry width="30" height="30" as="geometry">
            <mxRectangle width="30" height="30" as="alternateBounds" />
          </mxGeometry>
        </mxCell>
        <mxCell id="0jx59TE_2usO_WzDCnup-37" value="" style="shape=partialRectangle;overflow=hidden;connectable=0;fillColor=none;top=0;left=0;bottom=0;right=0;align=left;spacingLeft=6;fontStyle=0" vertex="1" parent="0jx59TE_2usO_WzDCnup-35">
          <mxGeometry x="30" width="220" height="30" as="geometry">
            <mxRectangle width="220" height="30" as="alternateBounds" />
          </mxGeometry>
        </mxCell>
        <mxCell id="0jx59TE_2usO_WzDCnup-38" value="target varchar(50) NOT NULL" style="shape=partialRectangle;overflow=hidden;connectable=0;fillColor=none;top=0;left=0;bottom=0;right=0;align=left;spacingLeft=6;fontStyle=0" vertex="1" parent="1">
          <mxGeometry x="150" y="730" width="220" height="30" as="geometry">
            <mxRectangle width="220" height="30" as="alternateBounds" />
          </mxGeometry>
        </mxCell>
        <mxCell id="0jx59TE_2usO_WzDCnup-39" value="wname varchar(50) NOT NULL" style="shape=partialRectangle;overflow=hidden;connectable=0;fillColor=none;top=0;left=0;bottom=0;right=0;align=left;spacingLeft=6;fontStyle=0" vertex="1" parent="1">
          <mxGeometry x="150" y="700" width="220" height="30" as="geometry">
            <mxRectangle width="220" height="30" as="alternateBounds" />
          </mxGeometry>
        </mxCell>
        <mxCell id="0jx59TE_2usO_WzDCnup-40" value="type varchar(50) NOT NULL" style="shape=partialRectangle;overflow=hidden;connectable=0;fillColor=none;top=0;left=0;bottom=0;right=0;align=left;spacingLeft=6;fontStyle=0" vertex="1" parent="1">
          <mxGeometry x="150" y="850" width="220" height="30" as="geometry">
            <mxRectangle width="220" height="30" as="alternateBounds" />
          </mxGeometry>
        </mxCell>
        <mxCell id="0jx59TE_2usO_WzDCnup-41" value="difficulty varchar(50) NOT NULL" style="shape=partialRectangle;overflow=hidden;connectable=0;fillColor=none;top=0;left=0;bottom=0;right=0;align=left;spacingLeft=6;fontStyle=0" vertex="1" parent="1">
          <mxGeometry x="151" y="760" width="220" height="30" as="geometry">
            <mxRectangle width="220" height="30" as="alternateBounds" />
          </mxGeometry>
        </mxCell>
        <mxCell id="0jx59TE_2usO_WzDCnup-42" value="reps int(11) NOT NULL" style="shape=partialRectangle;overflow=hidden;connectable=0;fillColor=none;top=0;left=0;bottom=0;right=0;align=left;spacingLeft=6;fontStyle=0" vertex="1" parent="1">
          <mxGeometry x="150" y="820" width="220" height="30" as="geometry">
            <mxRectangle width="220" height="30" as="alternateBounds" />
          </mxGeometry>
        </mxCell>
        <mxCell id="0jx59TE_2usO_WzDCnup-43" value="sets int(11) NOT NULL" style="shape=partialRectangle;overflow=hidden;connectable=0;fillColor=none;top=0;left=0;bottom=0;right=0;align=left;spacingLeft=6;fontStyle=0" vertex="1" parent="1">
          <mxGeometry x="151" y="790" width="220" height="30" as="geometry">
            <mxRectangle width="220" height="30" as="alternateBounds" />
          </mxGeometry>
        </mxCell>
        <mxCell id="0jx59TE_2usO_WzDCnup-44" value="created_date date NOT NULL" style="shape=partialRectangle;overflow=hidden;connectable=0;fillColor=none;top=0;left=0;bottom=0;right=0;align=left;spacingLeft=6;fontStyle=0" vertex="1" parent="1">
          <mxGeometry x="151" y="880" width="220" height="30" as="geometry">
            <mxRectangle width="220" height="30" as="alternateBounds" />
          </mxGeometry>
        </mxCell>
        <mxCell id="0jx59TE_2usO_WzDCnup-45" value="" style="endArrow=none;html=1;rounded=0;exitX=0.118;exitY=0.04;exitDx=0;exitDy=0;exitPerimeter=0;fontStyle=0" edge="1" parent="1" source="0jx59TE_2usO_WzDCnup-32">
          <mxGeometry width="50" height="50" relative="1" as="geometry">
            <mxPoint x="380" y="750" as="sourcePoint" />
            <mxPoint x="150" y="910" as="targetPoint" />
          </mxGeometry>
        </mxCell>
        <mxCell id="0jx59TE_2usO_WzDCnup-46" value="" style="endArrow=none;html=1;rounded=0;exitX=0.006;exitY=1.08;exitDx=0;exitDy=0;exitPerimeter=0;fontStyle=0" edge="1" parent="1" source="0jx59TE_2usO_WzDCnup-35">
          <mxGeometry width="50" height="50" relative="1" as="geometry">
            <mxPoint x="380" y="750" as="sourcePoint" />
            <mxPoint x="370" y="732" as="targetPoint" />
          </mxGeometry>
        </mxCell>
        <mxCell id="0jx59TE_2usO_WzDCnup-47" value="" style="endArrow=none;html=1;rounded=0;exitX=0.006;exitY=1.08;exitDx=0;exitDy=0;exitPerimeter=0;fontStyle=0" edge="1" parent="1">
          <mxGeometry width="50" height="50" relative="1" as="geometry">
            <mxPoint x="120" y="790" as="sourcePoint" />
            <mxPoint x="368" y="790" as="targetPoint" />
          </mxGeometry>
        </mxCell>
        <mxCell id="0jx59TE_2usO_WzDCnup-48" value="" style="endArrow=none;html=1;rounded=0;exitX=0.006;exitY=1.08;exitDx=0;exitDy=0;exitPerimeter=0;fontStyle=1" edge="1" parent="1">
          <mxGeometry width="50" height="50" relative="1" as="geometry">
            <mxPoint x="123" y="760" as="sourcePoint" />
            <mxPoint x="371" y="760" as="targetPoint" />
          </mxGeometry>
        </mxCell>
        <mxCell id="0jx59TE_2usO_WzDCnup-49" value="" style="endArrow=none;html=1;rounded=0;exitX=0.006;exitY=1.08;exitDx=0;exitDy=0;exitPerimeter=0;fontStyle=0" edge="1" parent="1">
          <mxGeometry width="50" height="50" relative="1" as="geometry">
            <mxPoint x="120" y="820" as="sourcePoint" />
            <mxPoint x="368" y="820" as="targetPoint" />
          </mxGeometry>
        </mxCell>
        <mxCell id="0jx59TE_2usO_WzDCnup-50" value="" style="endArrow=none;html=1;rounded=0;exitX=0.006;exitY=1.08;exitDx=0;exitDy=0;exitPerimeter=0;fontStyle=0" edge="1" parent="1">
          <mxGeometry width="50" height="50" relative="1" as="geometry">
            <mxPoint x="120" y="849.2" as="sourcePoint" />
            <mxPoint x="368" y="849.2" as="targetPoint" />
          </mxGeometry>
        </mxCell>
        <mxCell id="0jx59TE_2usO_WzDCnup-51" value="" style="endArrow=none;html=1;rounded=0;exitX=0.006;exitY=1.08;exitDx=0;exitDy=0;exitPerimeter=0;fontStyle=0" edge="1" parent="1">
          <mxGeometry width="50" height="50" relative="1" as="geometry">
            <mxPoint x="121" y="880" as="sourcePoint" />
            <mxPoint x="369" y="880" as="targetPoint" />
          </mxGeometry>
        </mxCell>
        <mxCell id="0jx59TE_2usO_WzDCnup-53" value="&lt;div style=&quot;text-align: center;&quot;&gt;&lt;span style=&quot;background-color: initial;&quot;&gt;Memo:&lt;/span&gt;&lt;/div&gt;&lt;div style=&quot;text-align: center;&quot;&gt;&lt;span style=&quot;background-color: initial;&quot;&gt;&lt;br&gt;&lt;/span&gt;&lt;/div&gt;1. Each ID&#39;s abbreviation&lt;br&gt;- Member ID: mid&lt;br&gt;- Instructor ID: iid&lt;br&gt;- Workout ID: wid&lt;br&gt;- Instructor-member ID: imid&lt;br&gt;- Workout-member ID: wmid&lt;br&gt;&lt;br&gt;2. Each column description&lt;br&gt;- [Column name] [Column type] [NULL permitted]&lt;br&gt;&lt;br&gt;3. PK and FK&lt;br&gt;- &#39;Primary key&#39; and &#39;Foreign key&#39;" style="whiteSpace=wrap;html=1;align=left;fontStyle=0" vertex="1" parent="1">
          <mxGeometry x="170" y="-180" width="280" height="240" as="geometry" />
        </mxCell>
        <mxCell id="RFCjPIUDiiTBRHqZEkt3-75" value="mid mediumint(9) NOT NULL &#xa;FKname: fk_mid_w" style="shape=partialRectangle;overflow=hidden;connectable=0;fillColor=none;top=0;left=0;bottom=0;right=0;align=left;spacingLeft=6;fontStyle=1;" parent="1" vertex="1">
          <mxGeometry x="590" y="740" width="220" height="40" as="geometry">
            <mxRectangle width="220" height="30" as="alternateBounds" />
          </mxGeometry>
        </mxCell>
      </root>
    </mxGraphModel>
  </diagram>
</mxfile>
